<svg xmlns="http://www.w3.org/2000/svg" xmlns:xlink="http://www.w3.org/1999/xlink" id="Layer_1" x="0" y="0" version="1.1" viewBox="150 -150 600 600" xml:space="preserve" style="enable-background:new 150 -150 600 600"><style type="text/css">.st0{fill:#fff}.st1{fill:#8ed6fb}.st2{fill:#1c78c0}</style><title>icon-square-small</title><desc>Created with Sketch.</desc><g id="Icon"><g id="icon-square-small"><g id="cube" transform="translate(36.000000, 0.000000)"><polygon id="border" points="415 -150 680 -.1 680 299.7 415 449.7 150 299.7 150 -.1" class="st0"/><g><g transform="translate(47.000000, 61.000000)"><path id="outer-cube" d="M585.7,228.4L376.8,346.6v-92l130.2-71.6L585.7,228.4z M600,215.5V-31.7l-76.4,44.1V163 v8.4L600,215.5z M149.5,228.4l208.9,118.2v-92l-130.2-71.6L149.5,228.4z M135.2,215.5V-31.7l76.4,44.1V163v8.4L135.2,215.5z M144.1-47.7l214.3-121.2v89L221.1-4.4l-1.1,0.6L144.1-47.7z M591-47.7L376.8-168.9v89L514-4.4l1.1,0.6L591-47.7z" class="st1"/><path id="inner-cube" d="M358.4,233.6L230,163V23.1l128.4,74.1V233.6z M376.8,233.6L505.2,163V23.1L376.8,97.2 V233.6z M367.6,91.9L367.6,91.9L367.6,91.9L367.6,91.9z M238.6,6.9L367.6-64L496.5,6.9L367.6,81.3L238.6,6.9z" class="st2"/></g></g></g></g></g></svg>