<svg xmlns="http://www.w3.org/2000/svg" xmlns:xlink="http://www.w3.org/1999/xlink" id="Layer_1" x="0" y="0" version="1.1" viewBox="450 -450 1200 1200" xml:space="preserve" style="enable-background:new 450 -450 1200 1200"><style type="text/css">.st0{fill:#fff}.st1{fill:#8ed6fb}.st2{fill:#1c78c0}</style><title>icon-square-big</title><desc>Created with Sketch.</desc><g id="Icon"><g id="icon-square-big"><g id="cube" transform="translate(163.000000, 106.000000)"><polygon id="border" points="886.6 -556 1416.9 -256 1416.9 344 886.6 644 356.3 344 356.3 -256" class="st0"/><g><g transform="translate(47.000000, 61.000000)"><path id="outer-cube" d="M1275.2,262.3L857.1,498.8V314.6l260.5-143.3L1275.2,262.3z M1303.8,236.4v-494.6 l-153,88.3v301.2v16.7L1303.8,236.4z M402.3,262.3l418.1,236.5V314.6L559.9,171.3L402.3,262.3z M373.7,236.4v-494.6l153,88.3 v301.2v16.7L373.7,236.4z M391.6-290.2l428.8-242.6v178.1L545.7-203.6l-2.1,1.2L391.6-290.2z M1285.9-290.2L857.1-532.8v178.1 l274.7,151.1l2.1,1.2L1285.9-290.2z" class="st1"/><path id="inner-cube" d="M820.4,272.7l-257-141.3v-280l257,148.4V272.7z M857.1,272.7l257-141.3v-280L857.1-0.2 V272.7z M838.8-10.9L838.8-10.9L838.8-10.9L838.8-10.9z M580.8-181l258-141.9l258,141.9l-258,149L580.8-181z" class="st2"/></g></g></g></g></g></svg>